<?xml version="1.0" encoding="utf-8"?>
<svg xmlns="http://www.w3.org/2000/svg" viewBox="0 0 190 65" xmlns:bx="https://boxy-svg.com" width="190px" height="65px"><defs/><path d="M 63.08 39.73 L 63.08 23.54 C 64.02 23.266666666666666 64.95 23.06 65.87 22.92 C 66.78333333333333 22.78 67.58333333333333 22.71 68.27 22.71 C 68.89 22.71 69.44333333333334 22.783333333333335 69.93 22.93 C 70.42333333333333 23.083333333333332 70.85 23.34 71.21 23.7 C 71.59666666666666 23.46666666666667 72.06666666666668 23.243333333333336 72.62 23.03 C 73.17333333333333 22.816666666666666 73.75 22.71 74.35 22.71 C 75.61 22.71 76.57 22.96666666666667 77.23 23.48 C 77.89 23.993333333333332 78.34333333333333 24.76 78.59 25.78 C 78.83666666666666 26.80666666666667 78.96 28.096666666666668 78.96 29.65 L 78.96 39.73 L 75.37 39.73 L 75.37 29.46 C 75.37 28.566666666666666 75.3 27.900000000000002 75.16 27.46 C 75.02666666666666 27.026666666666667 74.84666666666666 26.73333333333333 74.62 26.58 C 74.39333333333333 26.433333333333334 74.15333333333334 26.36 73.9 26.36 C 73.68666666666667 26.36 73.45333333333333 26.376666666666665 73.2 26.41 C 72.94 26.436666666666667 72.72666666666667 26.503333333333334 72.56 26.61 C 72.64 27.063333333333333 72.70333333333333 27.566666666666666 72.75 28.12 C 72.79 28.673333333333332 72.81 29.28 72.81 29.94 L 72.81 33.33 L 69.23 33.33 L 69.23 29.46 C 69.23 28.333333333333332 69.11666666666667 27.53333333333333 68.89 27.06 C 68.67 26.593333333333334 68.30333333333334 26.36 67.79 26.36 C 67.63666666666667 26.36 67.46000000000001 26.37 67.26 26.39 C 67.06 26.41 66.86333333333333 26.453333333333333 66.67 26.52 L 66.67 39.73 L 63.08 39.73 Z" style="fill: rgb(75, 62, 196); text-wrap-mode: nowrap;"/><path d="M 170.28 39.73 C 170.74666666666667 38.836666666666666 171.31333333333333 37.89 171.98 36.89 C 172.64 35.88333333333333 173.33666666666667 34.88 174.07 33.88 C 174.81 32.873333333333335 175.53 31.93333333333333 176.23 31.06 L 170.34 22.9 L 174.95 22.9 L 178.66 28.15 L 182.12 22.9 L 186.6 22.9 L 181.16 31 C 181.90666666666667 31.893333333333334 182.64333333333335 32.873333333333335 183.37 33.94 C 184.09666666666666 35.00666666666667 184.76333333333335 36.04666666666667 185.37 37.06 C 185.97666666666666 38.07333333333333 186.46 38.96333333333333 186.82 39.73 L 182.22 39.73 C 181.79333333333335 38.92333333333333 181.36666666666667 38.16666666666667 180.94 37.46 C 180.51333333333335 36.76 180.09 36.11 179.67 35.51 C 179.25666666666666 34.91 178.85666666666668 34.36666666666667 178.47 33.88 C 178.00333333333333 34.52 177.56 35.14333333333334 177.14 35.75 C 176.72666666666666 36.35666666666666 176.32666666666668 36.98 175.94 37.62 C 175.56 38.26 175.16666666666666 38.96333333333333 174.76 39.73 L 170.28 39.73 Z" style="fill: rgb(75, 62, 196); text-wrap-mode: nowrap;"/><path d="M 159.05 20.85 C 158.30333333333334 20.85 157.65 20.596666666666668 157.09 20.09 C 156.53666666666666 19.576666666666668 156.26 18.893333333333334 156.26 18.04 C 156.26 17.166666666666668 156.53666666666666 16.476666666666667 157.09 15.97 C 157.65 15.47 158.30333333333334 15.22 159.05 15.22 C 159.79666666666665 15.22 160.44666666666666 15.47 161 15.97 C 161.55333333333334 16.476666666666667 161.83 17.166666666666668 161.83 18.04 C 161.83 18.893333333333334 161.55333333333334 19.576666666666668 161 20.09 C 160.44666666666666 20.596666666666668 159.79666666666665 20.85 159.05 20.85 Z" style="fill: rgb(75, 62, 196); text-wrap-mode: nowrap;"/><path d="M 163.62 40.12 C 162.10666666666665 40.12 160.90666666666667 39.82666666666667 160.02 39.24 C 159.13333333333333 38.653333333333336 158.51 37.81 158.15 36.71 C 157.79000000000002 35.61 157.61 34.29333333333334 157.61 32.76 L 157.61 26.55 L 152.93 26.55 L 152.93 22.9 L 162.02 22.9 L 162.02 33.33 C 162.02 33.99666666666666 162.1 34.54666666666667 162.26 34.98 C 162.42 35.42 162.67666666666668 35.74666666666667 163.03 35.96 C 163.38333333333333 36.17333333333333 163.84666666666666 36.28 164.42 36.28 C 164.80666666666667 36.28 165.28666666666666 36.230000000000004 165.86 36.13 C 166.44 36.03666666666667 167.09 35.82 167.81 35.48 L 168.39 39.03 C 167.79 39.31 167.21333333333334 39.53 166.66 39.69 C 166.10666666666668 39.85 165.57333333333335 39.96 165.06 40.02 C 164.54666666666665 40.086666666666666 164.06666666666666 40.12 163.62 40.12 Z" style="fill: rgb(75, 62, 196); text-wrap-mode: nowrap;"/><path d="M 138.73 39.73 L 138.73 26.55 L 135.02 26.55 L 135.02 22.9 L 138.73 22.9 L 138.73 21.91 C 138.73 20.096666666666668 139.07333333333332 18.683333333333334 139.76 17.67 C 140.44 16.656666666666666 141.32333333333332 15.943333333333332 142.41 15.53 C 143.49666666666667 15.11 144.65 14.9 145.87 14.9 C 146.81 14.9 147.76333333333332 14.986666666666666 148.73 15.16 C 149.70333333333332 15.326666666666666 150.58333333333334 15.593333333333334 151.37 15.96 L 150.64 19.54 C 150.08 19.37333333333333 149.39000000000001 19.183333333333334 148.57 18.97 C 147.75 18.756666666666664 146.96666666666667 18.65 146.22 18.65 C 145.66666666666666 18.65 145.16 18.73 144.7 18.89 C 144.23999999999998 19.05 143.87333333333333 19.363333333333333 143.6 19.83 C 143.32 20.296666666666667 143.18 21.023333333333333 143.18 22.01 L 143.18 22.9 L 150.09 22.9 L 150.09 26.55 L 143.18 26.55 L 143.18 39.73 L 138.73 39.73 Z" style="fill: rgb(75, 62, 196); text-wrap-mode: nowrap;"/><path d="M 123.21 20.85 C 122.46333333333334 20.85 121.81333333333333 20.596666666666668 121.26 20.09 C 120.70666666666668 19.576666666666668 120.43 18.893333333333334 120.43 18.04 C 120.43 17.166666666666668 120.70666666666668 16.476666666666667 121.26 15.97 C 121.81333333333333 15.47 122.46333333333334 15.22 123.21 15.22 C 123.95666666666666 15.22 124.60666666666667 15.47 125.16 15.97 C 125.71333333333332 16.476666666666667 125.99 17.166666666666668 125.99 18.04 C 125.99 18.893333333333334 125.71333333333332 19.576666666666668 125.16 20.09 C 124.60666666666667 20.596666666666668 123.95666666666666 20.85 123.21 20.85 Z" style="fill: rgb(75, 62, 196); text-wrap-mode: nowrap;"/><path d="M 127.79 40.12 C 126.27000000000001 40.12 125.07000000000001 39.82666666666667 124.19 39.24 C 123.30333333333333 38.653333333333336 122.67666666666666 37.81 122.31 36.71 C 121.95 35.61 121.77 34.29333333333334 121.77 32.76 L 121.77 26.55 L 117.1 26.55 L 117.1 22.9 L 126.19 22.9 L 126.19 33.33 C 126.19 33.99666666666666 126.27 34.54666666666667 126.43 34.98 C 126.59 35.42 126.84333333333333 35.74666666666667 127.19 35.96 C 127.54333333333334 36.17333333333333 128.01 36.28 128.59 36.28 C 128.97 36.28 129.45 36.230000000000004 130.03 36.13 C 130.60333333333332 36.03666666666667 131.25333333333333 35.82 131.98 35.48 L 132.55 39.03 C 131.95666666666668 39.31 131.38333333333333 39.53 130.83 39.69 C 130.27 39.85 129.73666666666668 39.96 129.23 40.02 C 128.71666666666667 40.086666666666666 128.23666666666668 40.12 127.79 40.12 Z" style="fill: rgb(75, 62, 196); text-wrap-mode: nowrap;"/><path d="M 100.17 39.73 L 100.17 23.41 C 100.95666666666666 23.196666666666665 101.93333333333332 22.996666666666666 103.1 22.81 C 104.26 22.616666666666667 105.51333333333334 22.52 106.86 22.52 C 108.64666666666668 22.52 110.03666666666668 22.843333333333334 111.03 23.49 C 112.02333333333333 24.14333333333333 112.71666666666667 25.046666666666667 113.11 26.2 C 113.50333333333333 27.35333333333333 113.7 28.696666666666665 113.7 30.23 L 113.7 39.73 L 109.29 39.73 L 109.29 30.81 C 109.29 29.763333333333332 109.21333333333334 28.913333333333334 109.06 28.26 C 108.91333333333334 27.613333333333333 108.64333333333333 27.133333333333333 108.25 26.82 C 107.85666666666667 26.513333333333332 107.29666666666667 26.36 106.57 26.36 C 106.25 26.36 105.92333333333333 26.376666666666665 105.59 26.41 C 105.26333333333334 26.436666666666667 104.91666666666666 26.473333333333333 104.55 26.52 L 104.55 39.73 L 100.17 39.73 Z" style="fill: rgb(75, 62, 196); text-wrap-mode: nowrap;"/><path d="M 87.37 20.85 C 86.62333333333333 20.85 85.97 20.596666666666668 85.41 20.09 C 84.85666666666667 19.576666666666668 84.58 18.893333333333334 84.58 18.04 C 84.58 17.166666666666668 84.85666666666667 16.476666666666667 85.41 15.97 C 85.97 15.47 86.62333333333333 15.22 87.37 15.22 C 88.11666666666666 15.22 88.76666666666667 15.47 89.32 15.97 C 89.87333333333333 16.476666666666667 90.15 17.166666666666668 90.15 18.04 C 90.15 18.893333333333334 89.87333333333333 19.576666666666668 89.32 20.09 C 88.76666666666667 20.596666666666668 88.11666666666666 20.85 87.37 20.85 Z" style="fill: rgb(75, 62, 196); text-wrap-mode: nowrap;"/><path d="M 91.94 40.12 C 90.42666666666666 40.12 89.22666666666667 39.82666666666667 88.34 39.24 C 87.45333333333333 38.653333333333336 86.83 37.81 86.47 36.71 C 86.11 35.61 85.93 34.29333333333334 85.93 32.76 L 85.93 26.55 L 81.25 26.55 L 81.25 22.9 L 90.34 22.9 L 90.34 33.33 C 90.34 33.99666666666666 90.42 34.54666666666667 90.58 34.98 C 90.74 35.42 90.99666666666666 35.74666666666667 91.35 35.96 C 91.70333333333333 36.17333333333333 92.16666666666666 36.28 92.74 36.28 C 93.12666666666667 36.28 93.60666666666667 36.230000000000004 94.18 36.13 C 94.76 36.03666666666667 95.41 35.82 96.13 35.48 L 96.71 39.03 C 96.11 39.31 95.53333333333333 39.53 94.98 39.69 C 94.42666666666668 39.85 93.89333333333333 39.96 93.38 40.02 C 92.86666666666666 40.086666666666666 92.38666666666667 40.12 91.94 40.12 Z" style="fill: rgb(75, 62, 196); text-wrap-mode: nowrap;"/><path d="M 45.858 10.751 L 40.449 7.911 C 35.699 5.42 33.327 4.173 30.771 4.173 C 28.218 4.173 25.843 5.42 21.096 7.911 L 15.687 10.751 C 10.889 13.266 8.068 14.746 6.321 16.726 L 30.771 28.951 L 55.225 16.726 C 53.475 14.746 50.656 13.266 45.858 10.751 Z" style="fill: rgb(75, 62, 196);"/><path d="M 57.14 20.304 L 32.8 32.473 L 32.8 58.008 C 34.742 57.524 36.952 56.363 40.449 54.53 L 45.858 51.69 C 51.679 48.636 54.589 47.11 56.204 44.365 C 57.819 41.623 57.819 38.207 57.819 31.377 L 57.819 31.061 C 57.819 25.943 57.819 22.744 57.14 20.304 Z" style="fill: rgb(75, 62, 196);"/><path d="M 28.743 58.008 L 28.743 32.473 L 4.406 20.304 C 3.724 22.744 3.724 25.943 3.724 31.061 L 3.724 31.377 C 3.724 38.207 3.724 41.623 5.341 44.365 C 6.956 47.11 9.866 48.636 15.687 51.69 L 21.096 54.53 C 24.594 56.363 26.801 57.524 28.743 58.008 Z" style="fill: rgb(75, 62, 196);"/></svg>